<svg width="79.166748" height="79.166748" viewBox="0 0 79.1667 79.1667" fill="none" xmlns="http://www.w3.org/2000/svg" xmlns:xlink="http://www.w3.org/1999/xlink">
	<desc>
			Created with Pixso.
	</desc>
	<defs/>
	<path id="Vector" d="M29.6875 57.3958L57.3958 39.5833L29.6875 21.7708L29.6875 57.3958ZM39.5833 79.1667C34.1077 79.1667 28.9619 78.127 24.1458 76.0476C19.3298 73.968 15.1406 71.1484 11.5781 67.5886C8.01562 64.0261 5.19604 59.8369 3.11914 55.0208C1.04248 50.2048 0.00268555 45.0591 0 39.5833C0 34.1077 1.03979 28.9619 3.11914 24.1458C5.19873 19.3298 8.01831 15.1406 11.5781 11.5781C15.1406 8.01562 19.3298 5.19604 24.1458 3.11914C28.9619 1.04248 34.1077 0.00268555 39.5833 0C45.0591 0 50.2048 1.03979 55.0208 3.11914C59.8369 5.19873 64.0261 8.01831 67.5886 11.5781C71.1511 15.1406 73.9719 19.3298 76.0515 24.1458C78.1309 28.9619 79.1692 34.1077 79.1667 39.5833C79.1667 45.0591 78.127 50.2048 76.0476 55.0208C73.968 59.8369 71.1484 64.0261 67.5886 67.5886C64.0261 71.1511 59.8369 73.9719 55.0208 76.0515C50.2048 78.1309 45.0591 79.1692 39.5833 79.1667Z" fill="#BDBDBD" fill-opacity="0.870000" fill-rule="nonzero"/>
</svg>
