<svg width="20.312500" height="20.312500" viewBox="0 0 20.3125 20.3125" fill="none" xmlns="http://www.w3.org/2000/svg" xmlns:xlink="http://www.w3.org/1999/xlink">
	<desc>
			Created with Pixso.
	</desc>
	<defs/>
	<path id="Vector" d="M10.1562 5.46875C9.22925 5.46875 8.32275 5.74365 7.552 6.25879C6.78125 6.77393 6.18042 7.50586 5.82568 8.3623C5.4707 9.21899 5.37793 10.1614 5.55884 11.0708C5.73975 11.98 6.18604 12.8152 6.8418 13.4707C7.49731 14.1265 8.33252 14.5728 9.2417 14.7537C10.1511 14.9346 11.0935 14.8418 11.9502 14.4868C12.8066 14.1321 13.5386 13.5312 14.0537 12.7605C14.5688 11.9897 14.8438 11.0833 14.8438 10.1562C14.8425 8.91333 14.3481 7.72192 13.4695 6.84302C12.5906 5.96436 11.3992 5.46997 10.1562 5.46875ZM10.1562 13.2812C9.53809 13.2812 8.93408 13.0979 8.42017 12.7546C7.90625 12.4111 7.50562 11.9231 7.26904 11.3521C7.03271 10.781 6.9707 10.1528 7.09131 9.54663C7.21191 8.94043 7.50952 8.38354 7.94653 7.94653C8.38354 7.50952 8.94043 7.21191 9.54663 7.09131C10.1528 6.9707 10.781 7.03271 11.3521 7.26904C11.9231 7.50562 12.4111 7.90625 12.7546 8.42017C13.0979 8.93408 13.2812 9.53809 13.2812 10.1562C13.2812 10.9851 12.9519 11.7798 12.366 12.366C11.7798 12.9519 10.9851 13.2812 10.1562 13.2812ZM14.8438 0L5.46875 0C4.0188 0.00146484 2.62866 0.578125 1.60352 1.60352C0.578125 2.62866 0.00146484 4.0188 0 5.46875L0 14.8438C0.00146484 16.2937 0.578125 17.6838 1.60352 18.709C2.62866 19.7344 4.0188 20.311 5.46875 20.3125L14.8438 20.3125C16.2937 20.311 17.6838 19.7344 18.709 18.709C19.7344 17.6838 20.311 16.2937 20.3125 14.8438L20.3125 5.46875C20.311 4.0188 19.7344 2.62866 18.709 1.60352C17.6838 0.578125 16.2937 0.00146484 14.8438 0ZM18.75 14.8438C18.75 15.8796 18.3384 16.8733 17.606 17.606C16.8733 18.3384 15.8796 18.75 14.8438 18.75L5.46875 18.75C4.43286 18.75 3.43921 18.3384 2.70654 17.606C1.97412 16.8733 1.5625 15.8796 1.5625 14.8438L1.5625 5.46875C1.5625 4.43286 1.97412 3.43921 2.70654 2.70654C3.43921 1.97412 4.43286 1.5625 5.46875 1.5625L14.8438 1.5625C15.8796 1.5625 16.8733 1.97412 17.606 2.70654C18.3384 3.43921 18.75 4.43286 18.75 5.46875L18.75 14.8438ZM16.4062 5.07812C16.4062 5.30981 16.3374 5.53638 16.2087 5.72925C16.0801 5.92188 15.897 6.07202 15.6829 6.16089C15.4688 6.24951 15.2332 6.27271 15.0059 6.22754C14.7783 6.18237 14.5696 6.07056 14.4058 5.90674C14.2419 5.74292 14.1301 5.53418 14.085 5.30664C14.0398 5.07935 14.063 4.84375 14.1516 4.62964C14.2405 4.41553 14.3906 4.23242 14.5833 4.10376C14.7761 3.9751 15.0027 3.90625 15.2344 3.90625C15.5452 3.90625 15.8433 4.02979 16.063 4.24951C16.2827 4.46924 16.4062 4.76733 16.4062 5.07812Z" fill="#000000" fill-opacity="1.000000" fill-rule="nonzero"/>
</svg>
