<svg width="21.428467" height="16.714355" viewBox="0 0 21.4285 16.7144" fill="none" xmlns="http://www.w3.org/2000/svg" xmlns:xlink="http://www.w3.org/1999/xlink">
	<desc>
			Created with Pixso.
	</desc>
	<defs/>
	<path id="Vector" d="M17.7856 0.5C19.5215 0.5 20.9285 1.90723 20.9285 3.64307L20.9285 13.0713C20.9285 14.8071 19.5215 16.2144 17.7856 16.2144L3.64282 16.2144C1.90723 16.2144 0.5 14.8071 0.5 13.0713L0.5 3.64307C0.5 1.90723 1.90723 0.5 3.64282 0.5L17.7856 0.5Z" stroke="#000000" stroke-opacity="1.000000" stroke-width="1.000000" stroke-linejoin="round"/>
	<path id="Vector" d="M8.05859 5.40332C8.05542 5.29199 8.08252 5.18164 8.13721 5.08447C8.19189 4.9873 8.27197 4.90723 8.36914 4.85205C8.46606 4.79736 8.57617 4.76953 8.6875 4.77246C8.79907 4.77588 8.90747 4.80908 9.00146 4.86914L14.6587 8.16895C14.7532 8.22461 14.8315 8.30371 14.886 8.39893C14.9404 8.49414 14.969 8.60156 14.969 8.71143C14.969 8.8208 14.9404 8.92871 14.886 9.02344C14.8315 9.11865 14.7532 9.19775 14.6587 9.25342L9.00146 12.5532C8.90552 12.6089 8.79663 12.6377 8.68579 12.6377C8.57495 12.6372 8.46606 12.6079 8.37036 12.5518C8.27466 12.4961 8.19556 12.416 8.14062 12.3198C8.08594 12.2231 8.05762 12.1143 8.05859 12.0034L8.05859 5.40332Z" stroke="#000000" stroke-opacity="1.000000" stroke-width="1.000000" stroke-linejoin="round"/>
</svg>
