<svg width="16.500000" height="16.500000" viewBox="0 0 16.5 16.5" fill="none" xmlns="http://www.w3.org/2000/svg" xmlns:xlink="http://www.w3.org/1999/xlink">
	<desc>
			Created with Pixso.
	</desc>
	<defs/>
	<path id="Vector" d="M6.44702 11.2749L4.98022 11.2749L4.98022 6.50928L6.44702 6.50928L6.44702 11.2749ZM5.71362 5.89795C5.18457 5.89795 4.91968 5.65332 4.91968 5.16455C4.91821 5.06641 4.93774 4.96924 4.97729 4.87939C5.01685 4.78955 5.07544 4.70947 5.14893 4.64453C5.30176 4.50195 5.50464 4.42529 5.71362 4.43115C6.24243 4.43115 6.50732 4.67676 6.50732 5.16553C6.50732 5.65381 6.24341 5.89795 5.71362 5.89795ZM11.8865 11.2749L10.3894 11.2749L10.3894 8.6167C10.3894 7.9248 10.1438 7.57812 9.65527 7.57812C9.26831 7.57812 9.0144 7.77148 8.89087 8.1582C8.85132 8.21973 8.83032 8.34277 8.83032 8.5249L8.83032 11.2749L7.33325 11.2749L7.33325 8.03662C7.33325 7.30322 7.32227 6.79443 7.30298 6.50928L8.58643 6.50928L8.67798 7.1499C9.0144 6.64014 9.50317 6.38623 10.175 6.38623C10.6855 6.38623 11.0972 6.56445 11.4126 6.9209C11.7297 7.27734 11.8875 7.7915 11.8875 8.46436L11.8875 11.2749L11.8865 11.2749ZM8.25 16.5C3.70068 16.5 0 12.7993 0 8.25C0 3.70068 3.70068 0 8.25 0C12.7993 0 16.5 3.70068 16.5 8.25C16.5 12.7993 12.7993 16.5 8.25 16.5ZM8.25 1.8335C4.71265 1.8335 1.83325 4.7124 1.83325 8.25C1.83325 11.7876 4.71265 14.6665 8.25 14.6665C11.7874 14.6665 14.6667 11.7876 14.6667 8.25C14.6667 4.7124 11.7874 1.8335 8.25 1.8335Z" fill="#000000" fill-opacity="1.000000" fill-rule="nonzero"/>
</svg>
