<svg width="17.875000" height="17.875000" viewBox="0 0 17.875 17.875" fill="none" xmlns="http://www.w3.org/2000/svg" xmlns:xlink="http://www.w3.org/1999/xlink">
	<desc>
			Created with Pixso.
	</desc>
	<defs/>
	<path id="Vector" d="M8.9375 4.8125C8.12158 4.8125 7.32422 5.0542 6.64575 5.50781C5.96753 5.96094 5.43872 6.60498 5.12646 7.35889C4.81421 8.11279 4.73267 8.94189 4.89185 9.74219C5.05103 10.5425 5.44385 11.2773 6.02075 11.8545C6.59766 12.4312 7.33252 12.8242 8.13281 12.9834C8.93286 13.1426 9.76221 13.0605 10.5161 12.7485C11.2698 12.4365 11.9141 11.9077 12.3674 11.229C12.8206 10.5508 13.0625 9.75342 13.0625 8.9375C13.0613 7.84375 12.6265 6.79541 11.853 6.02197C11.0798 5.24854 10.0312 4.81348 8.9375 4.8125ZM8.9375 11.6875C8.39355 11.6875 7.86182 11.5264 7.40967 11.2241C6.95752 10.9219 6.60498 10.4922 6.39673 9.98975C6.18872 9.4873 6.13428 8.93457 6.24023 8.40088C6.34644 7.86768 6.6084 7.37744 6.99292 6.99316C7.37744 6.6084 7.86768 6.34668 8.40112 6.24023C8.93457 6.13428 9.4873 6.18848 9.98999 6.39697C10.4924 6.60498 10.9219 6.95752 11.2241 7.40967C11.5261 7.86182 11.6875 8.39355 11.6875 8.9375C11.6875 9.66699 11.3977 10.3662 10.8821 10.8818C10.3662 11.3979 9.66675 11.6875 8.9375 11.6875ZM13.0625 0L4.8125 0C3.53662 0.00146484 2.31323 0.508789 1.41113 1.41113C0.508789 2.31348 0.00146484 3.53662 0 4.8125L0 13.0625C0.00146484 14.3384 0.508789 15.5615 1.41113 16.4639C2.31323 17.3662 3.53662 17.8735 4.8125 17.875L13.0625 17.875C14.3384 17.8735 15.5618 17.3662 16.4639 16.4639C17.3662 15.5615 17.8735 14.3384 17.875 13.0625L17.875 4.8125C17.8735 3.53662 17.3662 2.31348 16.4639 1.41113C15.5618 0.508789 14.3384 0.00146484 13.0625 0ZM16.5 13.0625C16.5 13.9741 16.1379 14.8486 15.4932 15.4932C14.8486 16.1377 13.9741 16.5 13.0625 16.5L4.8125 16.5C3.90088 16.5 3.02637 16.1377 2.38184 15.4932C1.73706 14.8486 1.375 13.9741 1.375 13.0625L1.375 4.8125C1.375 3.90088 1.73706 3.02637 2.38184 2.38184C3.02637 1.7373 3.90088 1.375 4.8125 1.375L13.0625 1.375C13.9741 1.375 14.8486 1.7373 15.4932 2.38184C16.1379 3.02637 16.5 3.90088 16.5 4.8125L16.5 13.0625ZM14.4375 4.46875C14.4375 4.67285 14.377 4.87207 14.2637 5.0415C14.1504 5.21143 13.9893 5.34326 13.8008 5.42139C13.6125 5.49951 13.405 5.52002 13.2051 5.47998C13.0051 5.44043 12.8213 5.34229 12.677 5.19775C12.5327 5.05371 12.4346 4.87012 12.3948 4.66992C12.355 4.46973 12.3755 4.2627 12.4536 4.07422C12.5315 3.88574 12.6638 3.72461 12.8333 3.61133C13.0029 3.49805 13.2024 3.4375 13.4062 3.4375C13.6797 3.4375 13.9421 3.54639 14.1355 3.73975C14.3289 3.93311 14.4375 4.19531 14.4375 4.46875Z" fill="#000000" fill-opacity="1.000000" fill-rule="nonzero"/>
</svg>
