<svg width="17.875000" height="17.875000" viewBox="0 0 17.875 17.875" fill="none" xmlns="http://www.w3.org/2000/svg" xmlns:xlink="http://www.w3.org/1999/xlink">
	<desc>
			Created with Pixso.
	</desc>
	<defs/>
	<path id="Vector" d="M8.9375 0C7.16992 0 5.44189 0.524414 3.97217 1.50635C2.50244 2.48828 1.35669 3.88428 0.68042 5.51709C0.00390625 7.15039 -0.173096 8.94727 0.171631 10.6812C0.516602 12.415 1.36792 14.0073 2.61768 15.2573C3.86768 16.5073 5.46021 17.3584 7.19385 17.7031C8.92749 18.0483 10.7246 17.8711 12.3577 17.1948C13.991 16.5181 15.3867 15.3726 16.3687 13.9028C17.3508 12.4331 17.875 10.7051 17.875 8.9375C17.8726 6.56787 16.9302 4.2959 15.2544 2.62061C13.5789 0.944824 11.3071 0.00244141 8.9375 0ZM9.625 16.4683L9.625 11L11.6875 11C11.8699 11 12.0447 10.9277 12.1736 10.7988C12.3025 10.6699 12.375 10.4946 12.375 10.3125C12.375 10.1304 12.3025 9.95508 12.1736 9.82617C12.0447 9.69727 11.8699 9.625 11.6875 9.625L9.625 9.625L9.625 7.5625C9.625 7.19775 9.76978 6.84814 10.0278 6.59033C10.2856 6.33252 10.6353 6.1875 11 6.1875L12.375 6.1875C12.5574 6.1875 12.7322 6.11523 12.8611 5.98633C12.99 5.85742 13.0625 5.68213 13.0625 5.5C13.0625 5.31787 12.99 5.14258 12.8611 5.01367C12.7322 4.88477 12.5574 4.8125 12.375 4.8125L11 4.8125C10.2708 4.8125 9.57129 5.10205 9.05542 5.61816C8.53979 6.13379 8.25 6.83301 8.25 7.5625L8.25 9.625L6.1875 9.625C6.00513 9.625 5.83032 9.69727 5.70142 9.82617C5.57251 9.95508 5.5 10.1304 5.5 10.3125C5.5 10.4946 5.57251 10.6699 5.70142 10.7988C5.83032 10.9277 6.00513 11 6.1875 11L8.25 11L8.25 16.4683C6.31201 16.2915 4.5166 15.374 3.23755 13.9072C1.9585 12.4404 1.29419 10.5371 1.38281 8.59277C1.47144 6.64893 2.30591 4.81348 3.71313 3.46924C5.12012 2.125 6.99146 1.37451 8.9375 1.37451C10.8835 1.37451 12.7549 2.125 14.1619 3.46924C15.5691 4.81348 16.4036 6.64893 16.4922 8.59277C16.5808 10.5371 15.9165 12.4404 14.6375 13.9072C13.3584 15.374 11.563 16.2915 9.625 16.4683Z" fill="#000000" fill-opacity="1.000000" fill-rule="nonzero"/>
</svg>
